<?xml version="1.0" encoding="UTF-8" standalone="no"?>
<svg
   width="48"
   height="48"
   viewBox="0 0 48 48"
   version="1.1"
   id="svg6"
   sodipodi:docname="MapManager.svg"
   inkscape:version="1.2.2 (732a01da63, 2022-12-09)"
   xmlns:inkscape="http://www.inkscape.org/namespaces/inkscape"
   xmlns:sodipodi="http://sodipodi.sourceforge.net/DTD/sodipodi-0.dtd"
   xmlns="http://www.w3.org/2000/svg"
   xmlns:svg="http://www.w3.org/2000/svg">
  <defs
     id="defs10" />
  <sodipodi:namedview
     id="namedview8"
     pagecolor="#ffffff"
     bordercolor="#000000"
     borderopacity="0.25"
     inkscape:showpageshadow="2"
     inkscape:pageopacity="0.0"
     inkscape:pagecheckerboard="0"
     inkscape:deskcolor="#d1d1d1"
     showgrid="false"
     inkscape:zoom="6.025139"
     inkscape:cx="46.803899"
     inkscape:cy="18.007883"
     inkscape:window-width="1920"
     inkscape:window-height="1001"
     inkscape:window-x="-9"
     inkscape:window-y="-9"
     inkscape:window-maximized="1"
     inkscape:current-layer="svg6" />
  <path
     d="M0 0h48v48H0z"
     fill="none"
     id="path2" />
  <path
     d="m 23.992116,2.6722299 c -8.711673,0 -15.7598482,7.0560595 -15.7598482,15.7677311 0,8.711673 7.0481752,15.767733 15.7598482,15.767733 8.711673,0 15.775616,-7.05606 15.775616,-15.767733 0,-8.7116716 -7.063943,-15.7677311 -15.775616,-15.7677311 z M 34.91127,12.132868 h -4.651481 c -0.51245,-1.970966 -1.229883,-3.8630931 -2.175947,-5.6133111 2.901263,0.993367 5.313726,3.0037525 6.827428,5.6133111 z M 24,5.8809639 c 1.316605,1.892127 2.341508,3.9971195 3.011636,6.2519041 H 20.988363 C 21.658491,9.8780834 22.683394,7.7730909 24,5.8809639 Z M 11.795775,21.593508 c -0.260168,-1.009135 -0.409961,-2.065573 -0.409961,-3.153547 0,-1.087973 0.149793,-2.144411 0.409961,-3.153546 h 5.321609 c -0.126142,1.032786 -0.212864,2.081341 -0.212864,3.153546 0,1.072206 0.08672,2.120761 0.220748,3.153547 z m 1.28507,3.153546 h 4.651481 c 0.512451,1.970967 1.229883,3.863095 2.175947,5.621197 -2.901263,-0.993367 -5.313726,-3.011637 -6.827428,-5.621197 z M 17.732326,12.132868 H 13.080845 C 14.594547,9.5233094 17.00701,7.5050399 19.908273,6.5116729 18.962209,8.2697749 18.244777,10.161902 17.732326,12.132868 Z M 24,30.99896 c -1.308722,-1.892127 -2.333625,-3.99712 -3.011637,-6.251906 h 6.023273 C 26.333624,27.00184 25.308721,29.106833 24,30.99896 Z m 3.689649,-9.405452 H 20.31035 c -0.149793,-1.032786 -0.252284,-2.081341 -0.252284,-3.153547 0,-1.072205 0.102491,-2.12076 0.252284,-3.153546 h 7.379299 c 0.149793,1.032786 0.252284,2.081341 0.252284,3.153546 0,1.072206 -0.102491,2.120761 -0.252284,3.153547 z m 0.402077,8.766859 c 0.946064,-1.758102 1.663496,-3.642346 2.175947,-5.613313 h 4.651481 c -1.521586,2.60956 -3.934049,4.619946 -6.827428,5.613313 z m 2.783005,-8.766859 c 0.126142,-1.032786 0.220748,-2.081341 0.220748,-3.153547 0,-1.072205 -0.08672,-2.12076 -0.220748,-3.153546 h 5.32161 c 0.260167,1.009135 0.417845,2.065573 0.417845,3.153546 0,1.087974 -0.149794,2.144412 -0.417845,3.153547 z"
     id="path4"
     style="stroke-width:0.788387" />
  <text
     xml:space="preserve"
     style="font-size:12px;opacity:0.927007;fill:#000000;stroke-width:1.5;stroke-linejoin:round;paint-order:stroke fill markers"
     x="0.15234375"
     y="45.747391"
     id="text347"><tspan
       sodipodi:role="line"
       id="tspan345"
       x="0.15234375"
       y="45.747391">地图管理</tspan></text>
</svg>
