<?xml version="1.0" encoding="UTF-8" standalone="no"?>
<svg
   width="48"
   height="48"
   viewBox="0 0 48 48"
   version="1.1"
   id="svg360"
   sodipodi:docname="setting.svg"
   inkscape:version="1.2.2 (732a01da63, 2022-12-09)"
   xmlns:inkscape="http://www.inkscape.org/namespaces/inkscape"
   xmlns:sodipodi="http://sodipodi.sourceforge.net/DTD/sodipodi-0.dtd"
   xmlns="http://www.w3.org/2000/svg"
   xmlns:svg="http://www.w3.org/2000/svg">
  <defs
     id="defs364" />
  <sodipodi:namedview
     id="namedview362"
     pagecolor="#ffffff"
     bordercolor="#000000"
     borderopacity="0.25"
     inkscape:showpageshadow="2"
     inkscape:pageopacity="0.0"
     inkscape:pagecheckerboard="0"
     inkscape:deskcolor="#d1d1d1"
     showgrid="false"
     inkscape:zoom="8.5208333"
     inkscape:cx="1.8777506"
     inkscape:cy="16.371638"
     inkscape:window-width="1920"
     inkscape:window-height="1001"
     inkscape:window-x="-9"
     inkscape:window-y="-9"
     inkscape:window-maximized="1"
     inkscape:current-layer="svg360" />
  <path
     d="M0 0h48v48H0z"
     fill="none"
     id="path356" />
  <path
     d="m 36.541806,19.037748 c 0.06754,-0.540479 0.118199,-1.089403 0.118199,-1.646773 0,-0.557369 -0.05065,-1.106293 -0.118199,-1.646772 l 3.571312,-2.795291 c 0.320827,-0.25335 0.413698,-0.709379 0.202627,-1.080959 L 36.938618,6.015577 C 36.727548,5.652442 36.288521,5.500433 35.908595,5.652442 L 31.704071,7.3498851 C 30.834461,6.682731 29.880422,6.116917 28.850399,5.686222 L 28.217188,1.210379 C 28.141198,0.813464 27.795047,0.501 27.372905,0.501 h -6.754253 c -0.422141,0 -0.768297,0.312464 -0.83584,0.709379 L 19.149601,5.686222 C 18.119578,6.116917 17.165539,6.674286 16.295929,7.3498851 L 12.091406,5.652442 c -0.379927,-0.143564 -0.818954,0 -1.030024,0.363135 l -3.377127,5.852376 c -0.2110709,0.363135 -0.1181998,0.819164 0.202627,1.080959 l 3.562869,2.795291 c -0.06754,0.540479 -0.118199,1.089403 -0.118199,1.646772 0,0.55737 0.05066,1.106294 0.118199,1.646773 l -3.562869,2.795291 c -0.3208268,0.25335 -0.4136979,0.709379 -0.202627,1.080958 l 3.377127,5.852377 c 0.21107,0.363134 0.650097,0.515144 1.030024,0.363134 l 4.204523,-1.697442 c 0.86961,0.667154 1.823649,1.232968 2.853672,1.663663 l 0.633211,4.475843 c 0.06754,0.396914 0.413699,0.709379 0.83584,0.709379 h 6.754253 c 0.422142,0 0.768298,-0.312465 0.83584,-0.709379 l 0.633211,-4.475843 c 1.030024,-0.430695 1.984063,-0.988064 2.853673,-1.663663 l 4.204523,1.697442 c 0.379927,0.143565 0.818953,0 1.030024,-0.363134 l 3.377127,-5.852377 c 0.21107,-0.363134 0.118199,-0.819163 -0.202628,-1.080958 z m -12.546028,4.264719 c -3.26737,0 -5.909972,-2.643281 -5.909972,-5.911492 0,-3.26821 2.642602,-5.911491 5.909972,-5.911491 3.267371,0 5.909974,2.643281 5.909974,5.911491 0,3.268211 -2.642603,5.911492 -5.909974,5.911492 z"
     id="path358"
     style="stroke-width:0.84439" />
  <text
     xml:space="preserve"
     style="font-size:12px;opacity:0.927007;fill:#000000;stroke-width:1.5;stroke-linejoin:round;paint-order:stroke fill markers"
     x="11.970703"
     y="45.183376"
     id="text485"><tspan
       sodipodi:role="line"
       id="tspan483"
       x="11.970703"
       y="45.183376">设置</tspan></text>
</svg>
