<?xml version="1.0" encoding="UTF-8" standalone="no"?>
<svg
   width="48"
   height="48"
   viewBox="0 0 48 48"
   version="1.1"
   id="svg6"
   sodipodi:docname="addmap.svg"
   inkscape:version="1.2.2 (732a01da63, 2022-12-09)"
   xmlns:inkscape="http://www.inkscape.org/namespaces/inkscape"
   xmlns:sodipodi="http://sodipodi.sourceforge.net/DTD/sodipodi-0.dtd"
   xmlns="http://www.w3.org/2000/svg"
   xmlns:svg="http://www.w3.org/2000/svg">
  <defs
     id="defs10" />
  <sodipodi:namedview
     id="namedview8"
     pagecolor="#ffffff"
     bordercolor="#000000"
     borderopacity="0.25"
     inkscape:showpageshadow="2"
     inkscape:pageopacity="0.0"
     inkscape:pagecheckerboard="0"
     inkscape:deskcolor="#d1d1d1"
     showgrid="false"
     inkscape:zoom="6.025139"
     inkscape:cx="-12.281874"
     inkscape:cy="25.310619"
     inkscape:window-width="1920"
     inkscape:window-height="1001"
     inkscape:window-x="-9"
     inkscape:window-y="-9"
     inkscape:window-maximized="1"
     inkscape:current-layer="svg6" />
  <path
     d="M0 0h48v48H0z"
     fill="none"
     id="path2" />
  <path
     d="m 24,2.2076949 c -8.2875,0 -15,6.7125001 -15,15.0000001 0,8.2875 6.7125,15 15,15 8.2875,0 15,-6.7125 15,-15 C 39,8.920195 32.2875,2.2076949 24,2.2076949 Z M 22.5,29.102695 c -5.9175,-0.735 -10.5,-5.775 -10.5,-11.895 0,-0.9225 0.1125,-1.8225 0.315,-2.685 l 7.185,7.185 v 1.5 c 0,1.6575 1.3425,3 3,3 z m 10.3425,-3.8025 C 32.46,24.085195 31.335,23.207695 30,23.207695 h -1.5 v -4.5 c 0,-0.825 -0.675,-1.5 -1.5,-1.5 h -9 v -3 h 3 c 0.825,0 1.5,-0.675 1.5,-1.5 v -3 h 3 c 1.6575,0 3,-1.3425 3,-3.0000001 v -0.6225 c 4.395,1.7775 7.5,6.0825001 7.5,11.1225001 0,3.12 -1.2,5.955 -3.1575,8.0925 z"
     id="path4"
     style="stroke-width:0.75" />
  <text
     xml:space="preserve"
     style="font-size:12px;opacity:0.927007;fill:#000000;stroke-width:1.5;stroke-linejoin:round;paint-order:stroke fill markers"
     x="0.3515625"
     y="45.476131"
     id="text347"><tspan
       sodipodi:role="line"
       id="tspan345"
       x="0.3515625"
       y="45.476131">添加地图</tspan></text>
</svg>
